<?xml version="1.0" encoding="UTF-8"?>
<svg width="174px" height="150px" viewBox="0 0 174 150" version="1.1" xmlns="http://www.w3.org/2000/svg" xmlns:xlink="http://www.w3.org/1999/xlink">
    <!-- Generator: Sketch 41.2 (35397) - http://www.bohemiancoding.com/sketch -->
    <title>02</title>
    <desc>Created with Sketch.</desc>
    <defs>
        <path d="M67.453125,80.828125 C67.1718736,91.1875518 62.3672341,96.414062 53.0390625,96.5078125 C43.6640156,96.414062 38.8828134,91.1875518 38.6953125,80.828125 L38.6953125,37.375 C38.8828134,27.1093237 43.6640156,21.8828134 53.0390625,21.6953125 C62.3672341,21.8828134 67.1718736,27.1093237 67.453125,37.375 L67.453125,80.828125 Z M24,81.671875 C24.0937505,91.0937971 27.1171577,98.3593495 33.0703125,103.46875 C38.6484654,108.531275 45.3046488,111.109375 53.0390625,111.203125 C61.0078523,111.109375 67.7812221,108.531275 73.359375,103.46875 C79.0312784,98.3593495 81.9609366,91.0937971 82.1484375,81.671875 L82.1484375,36.4609375 C81.9609366,26.9921402 79.0312784,19.7031505 73.359375,14.59375 C67.7812221,9.53122469 61.0078523,7 53.0390625,7 C45.3046488,7 38.6484654,9.53122469 33.0703125,14.59375 C27.1171577,19.7031505 24.0937505,26.9921402 24,36.4609375 L24,81.671875 Z M92.2734375,110.359375 L150.703125,110.359375 L150.703125,95.6640625 L111.539063,95.6640625 L144.515625,54.3203125 C148.640646,49.0702863 150.703125,43.0703463 150.703125,36.3203125 C150.609375,27.8827703 147.773465,20.9219024 142.195313,15.4375 C136.71091,9.90622234 129.562544,7.09375047 120.75,7 C112.874961,7.09375047 106.242214,9.85934781 100.851563,15.296875 C95.5077858,20.8750279 92.6484394,27.9296448 92.2734375,36.4609375 L106.898438,36.4609375 C107.414065,31.7734141 109.054674,28.1406379 111.820313,25.5625 C114.492201,22.9843621 117.84373,21.6953125 121.875,21.6953125 C126.421898,21.789063 129.937488,23.2656107 132.421875,26.125 C134.812512,28.9843893 136.007813,32.3359183 136.007813,36.1796875 C136.007813,37.6328198 135.820314,39.1796793 135.445313,40.8203125 C134.88281,42.5546962 133.828133,44.4296774 132.28125,46.4453125 L92.2734375,96.5078125 L92.2734375,110.359375 Z" id="path-1"></path>
        <filter x="-50%" y="-50%" width="200%" height="200%" filterUnits="objectBoundingBox" id="filter-2">
            <feOffset dx="0" dy="16" in="SourceAlpha" result="shadowOffsetOuter1"></feOffset>
            <feGaussianBlur stdDeviation="12" in="shadowOffsetOuter1" result="shadowBlurOuter1"></feGaussianBlur>
            <feColorMatrix values="0 0 0 0 0   0 0 0 0 0   0 0 0 0 0  0 0 0 0.2403476 0" type="matrix" in="shadowBlurOuter1"></feColorMatrix>
        </filter>
    </defs>
    <g id="首页" stroke="none" stroke-width="1" fill="none" fill-rule="evenodd">
        <g id="02">
            <use fill="black" fill-opacity="1" filter="url(#filter-2)" xlink:href="#path-1"></use>
            <use fill="#FFFFFF" fill-rule="evenodd" xlink:href="#path-1"></use>
        </g>
    </g>
</svg>