<?xml version="1.0" encoding="UTF-8"?>
<svg width="173px" height="151px" viewBox="0 0 173 151" version="1.1" xmlns="http://www.w3.org/2000/svg" xmlns:xlink="http://www.w3.org/1999/xlink">
    <!-- Generator: Sketch 41.2 (35397) - http://www.bohemiancoding.com/sketch -->
    <title>03</title>
    <desc>Created with Sketch.</desc>
    <defs>
        <path d="M67.453125,80.828125 C67.1718736,91.1875518 62.3672341,96.414062 53.0390625,96.5078125 C43.6640156,96.414062 38.8828134,91.1875518 38.6953125,80.828125 L38.6953125,37.375 C38.8828134,27.1093237 43.6640156,21.8828134 53.0390625,21.6953125 C62.3672341,21.8828134 67.1718736,27.1093237 67.453125,37.375 L67.453125,80.828125 Z M24,81.671875 C24.0937505,91.0937971 27.1171577,98.3593495 33.0703125,103.46875 C38.6484654,108.531275 45.3046488,111.109375 53.0390625,111.203125 C61.0078523,111.109375 67.7812221,108.531275 73.359375,103.46875 C79.0312784,98.3593495 81.9609366,91.0937971 82.1484375,81.671875 L82.1484375,36.4609375 C81.9609366,26.9921402 79.0312784,19.7031505 73.359375,14.59375 C67.7812221,9.53122469 61.0078523,7 53.0390625,7 C45.3046488,7 38.6484654,9.53122469 33.0703125,14.59375 C27.1171577,19.7031505 24.0937505,26.9921402 24,36.4609375 L24,81.671875 Z M112.945312,64.0234375 L119.132812,64.0234375 C123.67971,64.0234375 127.429673,65.4062362 130.382812,68.171875 C133.382827,71.0312643 134.929687,75.062474 135.023438,80.265625 C134.929687,85.3750255 133.382827,89.3124862 130.382812,92.078125 C127.429673,95.0312648 123.796897,96.5078125 119.484375,96.5078125 C115.453105,96.5078125 112.218762,95.406261 109.78125,93.203125 C107.390613,91.0937395 105.539069,88.3281421 104.226562,84.90625 L89.53125,84.90625 C91.125008,93.4375427 94.6171605,99.9531025 100.007812,104.453125 C105.398464,108.953148 111.585903,111.203125 118.570312,111.203125 C127.617233,111.109375 135.023409,108.226591 140.789062,102.554688 C146.648467,97.0234098 149.625,89.453173 149.71875,79.84375 C149.71875,75.5312284 148.804697,71.4062697 146.976562,67.46875 C145.054678,63.5312303 141.937522,60.1562641 137.625,57.34375 C141.843771,54.4843607 144.773429,51.2265808 146.414062,47.5703125 C147.82032,43.9140442 148.523438,40.1172072 148.523438,36.1796875 C148.429687,28.3983986 145.757839,21.6484661 140.507812,15.9296875 C135.02341,10.0702832 127.617234,7.09375047 118.289062,7 C110.929651,7.09375047 104.601589,9.71872422 99.3046875,14.875 C93.9140355,20.078151 90.8437538,26.4765245 90.09375,34.0703125 L104.789062,34.0703125 C105.726567,29.8515414 107.554674,26.7343851 110.273438,24.71875 C112.851575,22.7031149 115.710922,21.6953125 118.851562,21.6953125 C123.210959,21.789063 126.773424,23.1718616 129.539062,25.84375 C132.304701,28.6093888 133.734375,32.1484159 133.828125,36.4609375 C133.828125,40.7265838 132.445326,44.1952991 129.679688,46.8671875 C126.914049,49.6328263 123.023463,51.015625 118.007812,51.015625 L112.945312,51.015625 L112.945312,64.0234375 Z" id="path-1"></path>
        <filter x="-50%" y="-50%" width="200%" height="200%" filterUnits="objectBoundingBox" id="filter-2">
            <feOffset dx="0" dy="16" in="SourceAlpha" result="shadowOffsetOuter1"></feOffset>
            <feGaussianBlur stdDeviation="12" in="shadowOffsetOuter1" result="shadowBlurOuter1"></feGaussianBlur>
            <feColorMatrix values="0 0 0 0 0   0 0 0 0 0   0 0 0 0 0  0 0 0 0.2403476 0" type="matrix" in="shadowBlurOuter1"></feColorMatrix>
        </filter>
    </defs>
    <g id="首页" stroke="none" stroke-width="1" fill="none" fill-rule="evenodd">
        <g id="03">
            <use fill="black" fill-opacity="1" filter="url(#filter-2)" xlink:href="#path-1"></use>
            <use fill="#FFFFFF" fill-rule="evenodd" xlink:href="#path-1"></use>
        </g>
    </g>
</svg>