<?xml version="1.0" encoding="UTF-8"?>
<svg width="175px" height="151px" viewBox="0 0 175 151" version="1.1" xmlns="http://www.w3.org/2000/svg" xmlns:xlink="http://www.w3.org/1999/xlink">
    <!-- Generator: Sketch 41.2 (35397) - http://www.bohemiancoding.com/sketch -->
    <title>05</title>
    <desc>Created with Sketch.</desc>
    <defs>
        <path d="M67.453125,80.828125 C67.1718736,91.1875518 62.3672341,96.414062 53.0390625,96.5078125 C43.6640156,96.414062 38.8828134,91.1875518 38.6953125,80.828125 L38.6953125,37.375 C38.8828134,27.1093237 43.6640156,21.8828134 53.0390625,21.6953125 C62.3672341,21.8828134 67.1718736,27.1093237 67.453125,37.375 L67.453125,80.828125 Z M24,81.671875 C24.0937505,91.0937971 27.1171577,98.3593495 33.0703125,103.46875 C38.6484654,108.531275 45.3046488,111.109375 53.0390625,111.203125 C61.0078523,111.109375 67.7812221,108.531275 73.359375,103.46875 C79.0312784,98.3593495 81.9609366,91.0937971 82.1484375,81.671875 L82.1484375,36.4609375 C81.9609366,26.9921402 79.0312784,19.7031505 73.359375,14.59375 C67.7812221,9.53122469 61.0078523,7 53.0390625,7 C45.3046488,7 38.6484654,9.53122469 33.0703125,14.59375 C27.1171577,19.7031505 24.0937505,26.9921402 24,36.4609375 L24,81.671875 Z M94.8046875,63.25 L108.65625,63.25 C110.390634,60.1093593 112.359364,57.9062563 114.5625,56.640625 C116.765636,55.4218689 119.203112,54.8125 121.875,54.8125 C124.875015,54.8125 127.382802,55.2343708 129.398438,56.078125 C131.414073,57.1093802 132.937495,58.4921788 133.96875,60.2265625 C135.890635,63.8828308 136.804688,68.6405957 136.710938,74.5 C136.710938,76.890637 136.664063,79.3515498 136.570312,81.8828125 C136.382812,84.4609504 135.867192,86.8515515 135.023438,89.0546875 C134.226559,91.2578235 132.820323,93.0390557 130.804688,94.3984375 C128.695302,95.8046945 125.88283,96.5078125 122.367187,96.5078125 C114.164021,96.414062 109.265633,92.4297269 107.671875,84.5546875 L92.9765625,84.5546875 C94.3828195,93.9766096 98.0155957,100.796854 103.875,105.015625 C109.640654,109.140646 115.992153,111.203125 122.929687,111.203125 C128.085963,111.109375 132.539044,109.914074 136.289062,107.617188 C140.132832,105.414051 143.06249,102.976576 145.078125,100.304688 C147.375011,97.5859239 149.01562,94.4687676 150,90.953125 C150.937505,87.3906072 151.40625,82.2812833 151.40625,75.625 C151.40625,71.3124784 151.265626,67.6797023 150.984375,64.7265625 C150.703124,61.820298 150.234378,59.3593851 149.578125,57.34375 C148.312494,53.6406065 146.250014,50.3828266 143.390625,47.5703125 C141.46874,45.460927 138.960953,43.6796948 135.867188,42.2265625 C132.585921,40.9140559 128.976582,40.210938 125.039062,40.1171875 C118.898407,40.1171875 113.437524,41.9921688 108.65625,45.7421875 L108.65625,22.5390625 L149.4375,22.5390625 L149.4375,7.84375 L94.8046875,7.84375 L94.8046875,63.25 Z" id="path-1"></path>
        <filter x="-50%" y="-50%" width="200%" height="200%" filterUnits="objectBoundingBox" id="filter-2">
            <feOffset dx="0" dy="16" in="SourceAlpha" result="shadowOffsetOuter1"></feOffset>
            <feGaussianBlur stdDeviation="12" in="shadowOffsetOuter1" result="shadowBlurOuter1"></feGaussianBlur>
            <feColorMatrix values="0 0 0 0 0   0 0 0 0 0   0 0 0 0 0  0 0 0 0.2403476 0" type="matrix" in="shadowBlurOuter1"></feColorMatrix>
        </filter>
    </defs>
    <g id="首页" stroke="none" stroke-width="1" fill="none" fill-rule="evenodd">
        <g id="05">
            <use fill="black" fill-opacity="1" filter="url(#filter-2)" xlink:href="#path-1"></use>
            <use fill="#FFFFFF" fill-rule="evenodd" xlink:href="#path-1"></use>
        </g>
    </g>
</svg>