<?xml version="1.0" encoding="UTF-8"?>
<svg width="181px" height="158px" viewBox="0 0 181 158" version="1.1" xmlns="http://www.w3.org/2000/svg" xmlns:xlink="http://www.w3.org/1999/xlink">
    <!-- Generator: Sketch 41.2 (35397) - http://www.bohemiancoding.com/sketch -->
    <title>首页5-03</title>
    <desc>Created with Sketch.</desc>
    <defs>
        <path d="M71.453125,76.828125 C71.1718736,87.1875518 66.3672341,92.414062 57.0390625,92.5078125 C47.6640156,92.414062 42.8828134,87.1875518 42.6953125,76.828125 L42.6953125,33.375 C42.8828134,23.1093237 47.6640156,17.8828134 57.0390625,17.6953125 C66.3672341,17.8828134 71.1718736,23.1093237 71.453125,33.375 L71.453125,76.828125 Z M28,77.671875 C28.0937505,87.0937971 31.1171577,94.3593495 37.0703125,99.46875 C42.6484654,104.531275 49.3046488,107.109375 57.0390625,107.203125 C65.0078523,107.109375 71.7812221,104.531275 77.359375,99.46875 C83.0312784,94.3593495 85.9609366,87.0937971 86.1484375,77.671875 L86.1484375,32.4609375 C85.9609366,22.9921402 83.0312784,15.7031505 77.359375,10.59375 C71.7812221,5.53122469 65.0078523,3 57.0390625,3 C49.3046488,3 42.6484654,5.53122469 37.0703125,10.59375 C31.1171577,15.7031505 28.0937505,22.9921402 28,32.4609375 L28,77.671875 Z M116.945313,60.0234375 L123.132813,60.0234375 C127.67971,60.0234375 131.429673,61.4062362 134.382813,64.171875 C137.382828,67.0312643 138.929687,71.062474 139.023438,76.265625 C138.929687,81.3750255 137.382828,85.3124862 134.382813,88.078125 C131.429673,91.0312648 127.796897,92.5078125 123.484375,92.5078125 C119.453105,92.5078125 116.218762,91.406261 113.78125,89.203125 C111.390613,87.0937395 109.539069,84.3281421 108.226563,80.90625 L93.53125,80.90625 C95.125008,89.4375427 98.6171605,95.9531025 104.007813,100.453125 C109.398464,104.953148 115.585903,107.203125 122.570313,107.203125 C131.617233,107.109375 139.023409,104.226591 144.789063,98.5546875 C150.648467,93.0234098 153.625,85.453173 153.71875,75.84375 C153.71875,71.5312284 152.804697,67.4062697 150.976563,63.46875 C149.054678,59.5312303 145.937522,56.1562641 141.625,53.34375 C145.843771,50.4843607 148.773429,47.2265808 150.414063,43.5703125 C151.82032,39.9140442 152.523438,36.1172072 152.523438,32.1796875 C152.429687,24.3983986 149.757839,17.6484661 144.507813,11.9296875 C139.02341,6.0702832 131.617234,3.09375047 122.289063,3 C114.929651,3.09375047 108.601589,5.71872422 103.304688,10.875 C97.9140355,16.078151 94.8437538,22.4765245 94.09375,30.0703125 L108.789063,30.0703125 C109.726567,25.8515414 111.554674,22.7343851 114.273438,20.71875 C116.851575,18.7031149 119.710922,17.6953125 122.851563,17.6953125 C127.210959,17.789063 130.773424,19.1718616 133.539063,21.84375 C136.304701,24.6093888 137.734375,28.1484159 137.828125,32.4609375 C137.828125,36.7265838 136.445326,40.1952991 133.679688,42.8671875 C130.914049,45.6328263 127.023463,47.015625 122.007813,47.015625 L116.945313,47.015625 L116.945313,60.0234375 Z" id="path-1"></path>
        <filter x="-50%" y="-50%" width="200%" height="200%" filterUnits="objectBoundingBox" id="filter-2">
            <feOffset dx="0" dy="24" in="SourceAlpha" result="shadowOffsetOuter1"></feOffset>
            <feGaussianBlur stdDeviation="14" in="shadowOffsetOuter1" result="shadowBlurOuter1"></feGaussianBlur>
            <feColorMatrix values="0 0 0 0 0   0 0 0 0 0   0 0 0 0 0  0 0 0 0.2403476 0" type="matrix" in="shadowBlurOuter1"></feColorMatrix>
        </filter>
    </defs>
    <g id="首页" stroke="none" stroke-width="1" fill="none" fill-rule="evenodd">
        <g id="首页5-03">
            <use fill="black" fill-opacity="1" filter="url(#filter-2)" xlink:href="#path-1"></use>
            <use fill="#626262" fill-rule="evenodd" xlink:href="#path-1"></use>
        </g>
    </g>
</svg>