<?xml version="1.0" encoding="UTF-8"?>
<svg width="510px" height="484px" viewBox="0 0 510 484" version="1.1" xmlns="http://www.w3.org/2000/svg" xmlns:xlink="http://www.w3.org/1999/xlink">
    <!-- Generator: Sketch 41.2 (35397) - http://www.bohemiancoding.com/sketch -->
    <title>首页5-2</title>
    <desc>Created with Sketch.</desc>
    <defs>
        <linearGradient x1="26.3637906%" y1="31.5220777%" x2="96.2586695%" y2="100%" id="linearGradient-1">
            <stop stop-color="#C7F35C" offset="0%"></stop>
            <stop stop-color="#00FF7C" offset="62.5956633%"></stop>
            <stop stop-color="#6DFBF2" offset="100%"></stop>
        </linearGradient>
        <rect id="path-2" x="0" y="0" width="474" height="448"></rect>
        <filter x="-50%" y="-50%" width="200%" height="200%" filterUnits="objectBoundingBox" id="filter-3">
            <feOffset dx="0" dy="4" in="SourceAlpha" result="shadowOffsetOuter1"></feOffset>
            <feGaussianBlur stdDeviation="9" in="shadowOffsetOuter1" result="shadowBlurOuter1"></feGaussianBlur>
            <feColorMatrix values="0 0 0 0 0   0 0 0 0 0.805750425   0 0 0 0 0.19733222  0 0 0 0.39526721 0" type="matrix" in="shadowBlurOuter1"></feColorMatrix>
        </filter>
    </defs>
    <g id="首页" stroke="none" stroke-width="1" fill="none" fill-rule="evenodd">
        <g id="首页5-2" transform="translate(18.000000, 14.000000)">
            <g id="Rectangle-2-Copy-2">
                <use fill="black" fill-opacity="1" filter="url(#filter-3)" xlink:href="#path-2"></use>
                <use fill="url(#linearGradient-1)" fill-rule="evenodd" xlink:href="#path-2"></use>
            </g>
            <g id="Group-7" transform="translate(27.000000, 18.000000)">
                <path d="M-28.7929688,304.449219 L29.6367188,304.449219 L29.6367188,289.753906 L-9.52734375,289.753906 L23.4492188,248.410156 C27.5742394,243.16013 29.6367188,237.16019 29.6367188,230.410156 C29.5429683,221.972614 26.7070591,215.011746 21.1289062,209.527344 C15.6445038,203.996066 8.49613781,201.183594 -0.31640625,201.089844 C-8.19144563,201.183594 -14.8241918,203.949192 -20.2148438,209.386719 C-25.5586205,214.964872 -28.4179669,222.019489 -28.7929688,230.550781 L-14.1679688,230.550781 C-13.6523412,225.863258 -12.0117326,222.230482 -9.24609375,219.652344 C-6.57420539,217.074206 -3.22267641,215.785156 0.80859375,215.785156 C5.35549148,215.878907 8.87108133,217.355454 11.3554688,220.214844 C13.7461057,223.074233 14.9414063,226.425762 14.9414063,230.269531 C14.9414063,231.722664 14.7539081,233.269523 14.3789062,234.910156 C13.8164034,236.64454 12.7617265,238.519521 11.2148438,240.535156 L-28.7929688,290.597656 L-28.7929688,304.449219 Z M84.6210938,274.917969 C84.3398423,285.277396 79.5352029,290.503906 70.2070313,290.597656 C60.8319844,290.503906 56.0507822,285.277396 55.8632813,274.917969 L55.8632813,231.464844 C56.0507822,221.199167 60.8319844,215.972657 70.2070313,215.785156 C79.5352029,215.972657 84.3398423,221.199167 84.6210938,231.464844 L84.6210938,274.917969 Z M41.1679688,275.761719 C41.2617192,285.183641 44.2851265,292.449193 50.2382813,297.558594 C55.8164341,302.621119 62.4726176,305.199218 70.2070313,305.292969 C78.1758211,305.199218 84.9491909,302.621119 90.5273438,297.558594 C96.1992471,292.449193 99.1289053,285.183641 99.3164063,275.761719 L99.3164063,230.550781 C99.1289053,221.081984 96.1992471,213.792994 90.5273438,208.683594 C84.9491909,203.621068 78.1758211,201.089844 70.2070313,201.089844 C62.4726176,201.089844 55.8164341,203.621068 50.2382813,208.683594 C44.2851265,213.792994 41.2617192,221.081984 41.1679688,230.550781 L41.1679688,275.761719 Z M132.714844,217.472656 L132.714844,304.449219 L147.410156,304.449219 L147.410156,201.933594 L132.714844,201.933594 L118.160156,212.550781 L118.160156,228.160156 L132.714844,217.472656 Z M181.230469,231.464844 L195.925781,231.464844 L195.925781,216.628906 L223.136719,216.628906 L188.472656,304.449219 L204.855469,304.449219 L239.589844,216.628906 L239.589844,201.933594 L181.230469,201.933594 L181.230469,231.464844 Z" id="2017" fill="#FFFFFF" transform="translate(105.398438, 253.191406) rotate(-90.000000) translate(-105.398438, -253.191406) "></path>
                <text id="新年快乐" transform="translate(19.500000, 77.000000) rotate(-90.000000) translate(-19.500000, -77.000000) " font-family="PingFangSC-Semibold, PingFang SC" font-size="24" font-weight="500" letter-spacing="8" fill="#FFFFFF">
                    <tspan x="-40.5" y="85.5">新年快</tspan>
                    <tspan x="55.5" y="85.5">乐</tspan>
                </text>
                <text id="Happy-New-Year" transform="translate(345.000000, 126.500000) rotate(-90.000000) translate(-345.000000, -126.500000) " font-family="PingFangSC-Semibold, PingFang SC" font-size="24" font-weight="500" line-spacing="38" letter-spacing="8" fill="#FFFFFF">
                    <tspan x="288.5" y="75.5">Happy</tspan>
                    <tspan x="288.5" y="113.5">New </tspan>
                    <tspan x="288.5" y="151.5">Year</tspan>
                </text>
                <path d="M276.5,219 L373.546381,219" id="Line" stroke="#FFFFFF" stroke-width="4" stroke-linecap="square"></path>
                <text id="创客贴" transform="translate(17.000000, 340.000000) rotate(-90.000000) translate(-17.000000, -340.000000) " font-family="PingFangSC-Semibold, PingFang SC" font-size="24" font-weight="500" letter-spacing="8" fill="#FFFFFF">
                    <tspan x="-31" y="348.5">创客贴</tspan>
                </text>
                <path d="M169.433594,74.8476562 C169.152342,85.207083 164.347703,90.4335933 155.019531,90.5273438 C145.644484,90.4335933 140.863282,85.207083 140.675781,74.8476562 L140.675781,31.3945312 C140.863282,21.1288549 145.644484,15.9023447 155.019531,15.7148438 C164.347703,15.9023447 169.152342,21.1288549 169.433594,31.3945312 L169.433594,74.8476562 Z M125.980469,75.6914062 C126.074219,85.1133284 129.097626,92.3788807 135.050781,97.4882812 C140.628934,102.550807 147.285118,105.128906 155.019531,105.222656 C162.988321,105.128906 169.761691,102.550807 175.339844,97.4882812 C181.011747,92.3788807 183.941405,85.1133284 184.128906,75.6914062 L184.128906,30.4804688 C183.941405,21.0116714 181.011747,13.7226818 175.339844,8.61328125 C169.761691,3.55075594 162.988321,1.01953125 155.019531,1.01953125 C147.285118,1.01953125 140.628934,3.55075594 135.050781,8.61328125 C129.097626,13.7226818 126.074219,21.0116714 125.980469,30.4804688 L125.980469,75.6914062 Z M217.527344,17.4023438 L217.527344,104.378906 L232.222656,104.378906 L232.222656,1.86328125 L217.527344,1.86328125 L202.972656,12.4804688 L202.972656,28.0898438 L217.527344,17.4023438 Z" id="01" fill="#FFFFFF" transform="translate(179.101563, 53.121094) rotate(-90.000000) translate(-179.101563, -53.121094) "></path>
                <path d="M260.605469,374.753906 L319.035156,374.753906 L319.035156,360.058594 L279.871094,360.058594 L312.847656,318.714844 C316.972677,313.464817 319.035156,307.464878 319.035156,300.714844 C318.941406,292.277302 316.105497,285.316434 310.527344,279.832031 C305.042941,274.300754 297.894575,271.488282 289.082031,271.394531 C281.206992,271.488282 274.574246,274.253879 269.183594,279.691406 C263.839817,285.269559 260.980471,292.324176 260.605469,300.855469 L275.230469,300.855469 C275.746096,296.167945 277.386705,292.535169 280.152344,289.957031 C282.824232,287.378893 286.175761,286.089844 290.207031,286.089844 C294.753929,286.183594 298.269519,287.660142 300.753906,290.519531 C303.144543,293.378921 304.339844,296.73045 304.339844,300.574219 C304.339844,302.027351 304.152346,303.574211 303.777344,305.214844 C303.214841,306.949227 302.160164,308.824209 300.613281,310.839844 L260.605469,360.902344 L260.605469,374.753906 Z M332.394531,301.769531 L347.089844,301.769531 L347.089844,286.933594 L374.300781,286.933594 L339.636719,374.753906 L356.019531,374.753906 L390.753906,286.933594 L390.753906,272.238281 L332.394531,272.238281 L332.394531,301.769531 Z" id="27" fill="#FFFFFF" transform="translate(325.679688, 323.074219) rotate(-90.000000) translate(-325.679688, -323.074219) "></path>
                <path d="M18.5,231.325693 L18.5,289.5" id="Line" stroke="#FFFFFF" stroke-width="3" stroke-linecap="square"></path>
                <path d="M6.5,190.325693 L6.5,248.5" id="Line-Copy" stroke="#FFFFFF" stroke-width="3" stroke-linecap="square"></path>
                <path d="M30.5,147.325693 L30.5,205.5" id="Line-Copy-2" stroke="#FFFFFF" stroke-width="3" stroke-linecap="square"></path>
            </g>
        </g>
    </g>
</svg>