<?xml version="1.0" encoding="UTF-8"?>
<svg width="422px" height="428px" viewBox="0 0 422 428" version="1.1" xmlns="http://www.w3.org/2000/svg" xmlns:xlink="http://www.w3.org/1999/xlink">
    <!-- Generator: Sketch 41.2 (35397) - http://www.bohemiancoding.com/sketch -->
    <title>首页5-3</title>
    <desc>Created with Sketch.</desc>
    <defs>
        <linearGradient x1="26.3637906%" y1="31.5220777%" x2="96.2586695%" y2="100%" id="linearGradient-1">
            <stop stop-color="#C7F35C" offset="0%"></stop>
            <stop stop-color="#00FF7C" offset="62.5956633%"></stop>
            <stop stop-color="#6DFBF2" offset="100%"></stop>
        </linearGradient>
        <rect id="path-2" x="0.0888613166" y="0.3151025" width="385.809774" height="391.369795"></rect>
        <filter x="-50%" y="-50%" width="200%" height="200%" filterUnits="objectBoundingBox" id="filter-3">
            <feOffset dx="0" dy="4" in="SourceAlpha" result="shadowOffsetOuter1"></feOffset>
            <feGaussianBlur stdDeviation="9" in="shadowOffsetOuter1" result="shadowBlurOuter1"></feGaussianBlur>
            <feColorMatrix values="0 0 0 0 0   0 0 0 0 0.805750425   0 0 0 0 0.19733222  0 0 0 0.39526721 0" type="matrix" in="shadowBlurOuter1"></feColorMatrix>
        </filter>
        <linearGradient x1="70.4502161%" y1="87.8548509%" x2="-9.30176732%" y2="-52.9941225%" id="linearGradient-4">
            <stop stop-color="#C7F35C" offset="0%"></stop>
            <stop stop-color="#00FF7C" offset="62.5956633%"></stop>
            <stop stop-color="#6DFBF2" offset="100%"></stop>
        </linearGradient>
        <path d="M7.71484059,95.6839501 C7.71484059,95.6839501 20.550296,91.5252414 37.4158208,95.5976698 C59.958603,101.040996 76.4562812,108.226225 76.4562812,108.226225 C76.4562812,108.226225 105.966172,20.3862049 119.197182,10.8531944 C119.197182,10.8531944 114.267083,13.6736004 110.280009,15.9907048 C106.73244,18.0518445 7.71484059,95.6839501 7.71484059,95.6839501" id="path-5"></path>
        <filter x="-50%" y="-50%" width="200%" height="200%" filterUnits="objectBoundingBox" id="filter-6">
            <feOffset dx="0" dy="4" in="SourceAlpha" result="shadowOffsetOuter1"></feOffset>
            <feGaussianBlur stdDeviation="9" in="shadowOffsetOuter1" result="shadowBlurOuter1"></feGaussianBlur>
            <feColorMatrix values="0 0 0 0 0   0 0 0 0 0.805750425   0 0 0 0 0.19733222  0 0 0 0.39526721 0" type="matrix" in="shadowBlurOuter1"></feColorMatrix>
        </filter>
        <path d="M84.4780137,0.58878592 L42.9374815,43.1221624 L42.9374815,102.301185 L-5.88709681e-05,143.674662 L-5.88709681e-05,204.448326 L61.0432476,204.448326 L103.543965,161.920841 L103.543965,102.880251 L145.629054,60.0753089 L145.629054,0.58878592 L84.4780137,0.58878592 Z M1.76607016,144.426918 L44.7036105,103.053441 L44.7036105,43.8426078 L85.221554,2.3560273 L143.862925,2.3560273 L143.862925,59.351329 L101.777836,102.156861 L101.777836,161.188614 L60.3120702,202.681085 L1.76607016,202.681085 L1.76607016,144.426918 Z" id="path-7"></path>
        <filter x="-50%" y="-50%" width="200%" height="200%" filterUnits="objectBoundingBox" id="filter-8">
            <feOffset dx="0" dy="4" in="SourceAlpha" result="shadowOffsetOuter1"></feOffset>
            <feGaussianBlur stdDeviation="9" in="shadowOffsetOuter1" result="shadowBlurOuter1"></feGaussianBlur>
            <feColorMatrix values="0 0 0 0 0   0 0 0 0 0.805750425   0 0 0 0 0.19733222  0 0 0 0.39526721 0" type="matrix" in="shadowBlurOuter1"></feColorMatrix>
        </filter>
        <polygon id="path-9" points="144.745813 60.5967629 84.6026435 60.5967629 84.6026435 1.47252443 86.3687726 1.47252443 86.3687726 58.8295216 144.745813 58.8295216"></polygon>
        <filter x="-50%" y="-50%" width="200%" height="200%" filterUnits="objectBoundingBox" id="filter-10">
            <feOffset dx="0" dy="4" in="SourceAlpha" result="shadowOffsetOuter1"></feOffset>
            <feGaussianBlur stdDeviation="9" in="shadowOffsetOuter1" result="shadowBlurOuter1"></feGaussianBlur>
            <feColorMatrix values="0 0 0 0 0   0 0 0 0 0.805750425   0 0 0 0 0.19733222  0 0 0 0.39526721 0" type="matrix" in="shadowBlurOuter1"></feColorMatrix>
        </filter>
        <polygon id="path-11" points="43.82555 44.3657112 43.8155419 42.5984698 101.497905 42.2821336 142.906566 0.847392241 144.155219 2.09742098 102.233203 44.0452514"></polygon>
        <filter x="-50%" y="-50%" width="200%" height="200%" filterUnits="objectBoundingBox" id="filter-12">
            <feOffset dx="0" dy="4" in="SourceAlpha" result="shadowOffsetOuter1"></feOffset>
            <feGaussianBlur stdDeviation="9" in="shadowOffsetOuter1" result="shadowBlurOuter1"></feGaussianBlur>
            <feColorMatrix values="0 0 0 0 0   0 0 0 0 0.805750425   0 0 0 0 0.19733222  0 0 0 0.39526721 0" type="matrix" in="shadowBlurOuter1"></feColorMatrix>
        </filter>
        <polygon id="path-13" points="44.7037282 161.872889 42.9375992 161.872889 42.9375992 101.6347 100.982607 101.6347 100.982607 43.1637514 102.748736 43.1637514 102.748736 103.401941 44.7037282 103.401941"></polygon>
        <filter x="-50%" y="-50%" width="200%" height="200%" filterUnits="objectBoundingBox" id="filter-14">
            <feOffset dx="0" dy="4" in="SourceAlpha" result="shadowOffsetOuter1"></feOffset>
            <feGaussianBlur stdDeviation="9" in="shadowOffsetOuter1" result="shadowBlurOuter1"></feGaussianBlur>
            <feColorMatrix values="0 0 0 0 0   0 0 0 0 0.805750425   0 0 0 0 0.19733222  0 0 0 0.39526721 0" type="matrix" in="shadowBlurOuter1"></feColorMatrix>
        </filter>
        <polygon id="path-15" points="60.9245637 203.564411 59.1584347 203.564411 59.1584347 144.934411 0.883241129 144.934411 0.883241129 143.16717 60.9245637 143.16717"></polygon>
        <filter x="-50%" y="-50%" width="200%" height="200%" filterUnits="objectBoundingBox" id="filter-16">
            <feOffset dx="0" dy="4" in="SourceAlpha" result="shadowOffsetOuter1"></feOffset>
            <feGaussianBlur stdDeviation="9" in="shadowOffsetOuter1" result="shadowBlurOuter1"></feGaussianBlur>
            <feColorMatrix values="0 0 0 0 0   0 0 0 0 0.805750425   0 0 0 0 0.19733222  0 0 0 0.39526721 0" type="matrix" in="shadowBlurOuter1"></feColorMatrix>
        </filter>
        <polygon id="path-17" points="42.1804597 160.991389 0.258443548 202.939809 1.50709677 204.189249 42.9157581 162.754507 102.665081 162.438171 102.65625 160.67093"></polygon>
        <filter x="-50%" y="-50%" width="200%" height="200%" filterUnits="objectBoundingBox" id="filter-18">
            <feOffset dx="0" dy="4" in="SourceAlpha" result="shadowOffsetOuter1"></feOffset>
            <feGaussianBlur stdDeviation="9" in="shadowOffsetOuter1" result="shadowBlurOuter1"></feGaussianBlur>
            <feColorMatrix values="0 0 0 0 0   0 0 0 0 0.805750425   0 0 0 0 0.19733222  0 0 0 0.39526721 0" type="matrix" in="shadowBlurOuter1"></feColorMatrix>
        </filter>
        <polygon id="path-19" points="60.5862323 144.598576 57.2282323 143.502886 84.7086113 59.1654152 88.0666113 60.2611049"></polygon>
        <filter x="-50%" y="-50%" width="200%" height="200%" filterUnits="objectBoundingBox" id="filter-20">
            <feOffset dx="0" dy="4" in="SourceAlpha" result="shadowOffsetOuter1"></feOffset>
            <feGaussianBlur stdDeviation="9" in="shadowOffsetOuter1" result="shadowBlurOuter1"></feGaussianBlur>
            <feColorMatrix values="0 0 0 0 0   0 0 0 0 0.805750425   0 0 0 0 0.19733222  0 0 0 0.39526721 0" type="matrix" in="shadowBlurOuter1"></feColorMatrix>
        </filter>
        <rect id="path-21" x="333" y="327" width="17" height="7"></rect>
        <filter x="-50%" y="-50%" width="200%" height="200%" filterUnits="objectBoundingBox" id="filter-22">
            <feOffset dx="0" dy="4" in="SourceAlpha" result="shadowOffsetOuter1"></feOffset>
            <feGaussianBlur stdDeviation="9" in="shadowOffsetOuter1" result="shadowBlurOuter1"></feGaussianBlur>
            <feColorMatrix values="0 0 0 0 0   0 0 0 0 0.805750425   0 0 0 0 0.19733222  0 0 0 0.39526721 0" type="matrix" in="shadowBlurOuter1"></feColorMatrix>
        </filter>
        <rect id="path-23" x="219" y="38" width="128" height="198"></rect>
        <filter x="-50%" y="-50%" width="200%" height="200%" filterUnits="objectBoundingBox" id="filter-24">
            <feOffset dx="0" dy="4" in="SourceAlpha" result="shadowOffsetOuter1"></feOffset>
            <feGaussianBlur stdDeviation="9" in="shadowOffsetOuter1" result="shadowBlurOuter1"></feGaussianBlur>
            <feColorMatrix values="0 0 0 0 0   0 0 0 0 0.805750425   0 0 0 0 0.19733222  0 0 0 0.39526721 0" type="matrix" in="shadowBlurOuter1"></feColorMatrix>
        </filter>
    </defs>
    <g id="首页" stroke="none" stroke-width="1" fill="none" fill-rule="evenodd">
        <g id="首页5-3" transform="translate(18.000000, 14.000000)">
            <g id="Rectangle-2-Copy-3">
                <use fill="black" fill-opacity="1" filter="url(#filter-3)" xlink:href="#path-2"></use>
                <use fill="url(#linearGradient-1)" fill-rule="evenodd" xlink:href="#path-2"></use>
            </g>
            <g id="Group-9">
                <g id="Page-1">
                    <g id="Group-3" transform="translate(0.000000, 0.161056)" fill="#FFFFFF">
                        <path d="M1.07123006,391.81288 C1.07123006,391.81288 -3.8486302,104.690747 8.48999356,94.8519208 C20.8276619,85.0111773 63.0688649,53.5543517 63.0688649,53.5543517 L107.175098,18.0902871 C107.175098,18.0902871 129.65482,-0.693885057 166.668781,0.892713133 L385.588107,0.892713133 L385.76227,391.839723 L1.07123006,391.81288 Z" id="Fill-1"></path>
                    </g>
                    <g id="Fill-4">
                        <use fill="black" fill-opacity="1" filter="url(#filter-6)" xlink:href="#path-5"></use>
                        <use fill="url(#linearGradient-4)" fill-rule="evenodd" xlink:href="#path-5"></use>
                    </g>
                </g>
                <g id="Page-1" transform="translate(30.000000, 157.000000)">
                    <g id="Fill-1">
                        <use fill="black" fill-opacity="1" filter="url(#filter-8)" xlink:href="#path-7"></use>
                        <use fill="url(#linearGradient-1)" fill-rule="evenodd" xlink:href="#path-7"></use>
                    </g>
                    <g id="Fill-2">
                        <use fill="black" fill-opacity="1" filter="url(#filter-10)" xlink:href="#path-9"></use>
                        <use fill="url(#linearGradient-1)" fill-rule="evenodd" xlink:href="#path-9"></use>
                    </g>
                    <g id="Fill-3">
                        <use fill="black" fill-opacity="1" filter="url(#filter-12)" xlink:href="#path-11"></use>
                        <use fill="url(#linearGradient-1)" fill-rule="evenodd" xlink:href="#path-11"></use>
                    </g>
                    <g id="Fill-4">
                        <use fill="black" fill-opacity="1" filter="url(#filter-14)" xlink:href="#path-13"></use>
                        <use fill="url(#linearGradient-1)" fill-rule="evenodd" xlink:href="#path-13"></use>
                    </g>
                    <g id="Fill-5">
                        <use fill="black" fill-opacity="1" filter="url(#filter-16)" xlink:href="#path-15"></use>
                        <use fill="url(#linearGradient-1)" fill-rule="evenodd" xlink:href="#path-15"></use>
                    </g>
                    <g id="Fill-6">
                        <use fill="black" fill-opacity="1" filter="url(#filter-18)" xlink:href="#path-17"></use>
                        <use fill="url(#linearGradient-1)" fill-rule="evenodd" xlink:href="#path-17"></use>
                    </g>
                    <g id="Fill-7">
                        <use fill="black" fill-opacity="1" filter="url(#filter-20)" xlink:href="#path-19"></use>
                        <use fill="url(#linearGradient-1)" fill-rule="evenodd" xlink:href="#path-19"></use>
                    </g>
                </g>
                <text id="Invitation" font-family="PingFangSC-Semibold, PingFang SC" font-size="24" font-weight="500" letter-spacing="4" fill="#50E3C2">
                    <tspan x="209" y="276">Invitatio</tspan>
                    <tspan x="335.96" y="276">n</tspan>
                </text>
                <text id="www.chuangkit.com" font-family="PingFangSC-Semibold, PingFang SC" font-size="14" font-weight="500" letter-spacing="2.33333325" fill="#50E3C2">
                    <tspan x="176" y="355">www.chuangkit.com</tspan>
                </text>
                <text id="2017" font-family="DINAlternate-Bold, DIN Alternate" font-size="36" font-weight="bold" fill="#50E3C2">
                    <tspan x="280" y="312">2017</tspan>
                </text>
                <g id="Rectangle">
                    <use fill="black" fill-opacity="1" filter="url(#filter-22)" xlink:href="#path-21"></use>
                    <use fill="url(#linearGradient-1)" fill-rule="evenodd" xlink:href="#path-21"></use>
                </g>
                <g id="Rectangle-7">
                    <use fill="black" fill-opacity="1" filter="url(#filter-24)" xlink:href="#path-23"></use>
                    <use fill="url(#linearGradient-1)" fill-rule="evenodd" xlink:href="#path-23"></use>
                </g>
                <path d="M219,38.1279599 L225.951691,62.3401914 L230.190527,62.3401914 L234.938024,44.1301517 L235.073666,44.1301517 L239.787252,62.3401914 L243.992177,62.3401914 L250.977779,38.1279599 L246.501568,38.1279599 L241.957536,56.5414637 L241.821893,56.5414637 L237.040486,38.1279599 L232.937293,38.1279599 L228.155886,56.5414637 L228.020243,56.5414637 L223.476211,38.1279599 L219,38.1279599 Z M253.521081,38.1279599 L253.521081,62.3401914 L271.561567,62.3401914 L271.561567,58.9491226 L257.488631,58.9491226 L257.488631,51.6244139 L270.171229,51.6244139 L270.171229,48.233345 L257.488631,48.233345 L257.488631,41.5190287 L270.985085,41.5190287 L270.985085,38.1279599 L253.521081,38.1279599 Z M275.291743,38.1279599 L275.291743,62.3401914 L286.414449,62.3401914 C288.991661,62.3401914 291.026302,61.8654418 292.450551,60.9159425 C294.112175,59.7629791 294.959942,57.9657126 294.959942,55.524143 C294.959942,53.89643 294.553014,52.5739132 293.773068,51.6244139 C292.959212,50.6410039 291.772337,49.9967008 290.178535,49.6915046 C291.39932,49.216755 292.314908,48.5724519 292.959212,47.690774 C293.603515,46.7412747 293.942622,45.5883113 293.942622,44.2318838 C293.942622,42.4007066 293.298318,40.942547 292.043623,39.857405 C290.687195,38.7044416 288.788197,38.1279599 286.380538,38.1279599 L275.291743,38.1279599 Z M279.259293,41.383386 L285.397128,41.383386 C287.024841,41.383386 288.177804,41.6546715 288.92384,42.1972425 C289.602053,42.7059028 289.975071,43.55367 289.975071,44.7066334 C289.975071,45.9613289 289.602053,46.8769175 288.92384,47.4533992 C288.211715,47.9959702 287.024841,48.3011664 285.329307,48.3011664 L279.259293,48.3011664 L279.259293,41.383386 Z M279.259293,51.5565925 L285.939699,51.5565925 C287.703055,51.5565925 288.991661,51.8617887 289.805518,52.4721811 C290.585463,53.0825735 290.992392,54.0659834 290.992392,55.4563217 C290.992392,56.8127492 290.449821,57.7622485 289.364679,58.3726409 C288.516911,58.8473905 287.330037,59.0847653 285.837967,59.0847653 L279.259293,59.0847653 L279.259293,51.5565925 Z M308.701454,62.3401914 L322.461113,62.3401914 L322.461113,58.8795792 L313.238333,58.8795792 L321.004013,49.1435026 C321.975418,47.9071692 322.461113,46.494238 322.461113,44.9046665 C322.439036,42.9177022 321.771205,41.2784812 320.457601,39.9869544 C319.166074,38.6843889 317.482699,38.0220774 315.407425,38 C313.552925,38.0220774 311.990974,38.6733504 310.721524,39.9538385 C309.463113,41.2674427 308.789763,42.9287407 308.701454,44.9377825 L312.145508,44.9377825 C312.266934,43.8339134 312.653282,42.9784277 313.304565,42.3712997 C313.93377,41.7641717 314.723025,41.4606123 315.672352,41.4606123 C316.743105,41.4826896 317.570995,41.8304032 318.156045,42.5037633 C318.719018,43.1771234 319.000501,43.966378 319.000501,44.8715506 C319.000501,45.2137501 318.956347,45.5780214 318.868037,45.9643756 C318.735573,46.3728071 318.487206,46.8143481 318.122929,47.2890118 L308.701454,59.0782746 L308.701454,62.3401914 Z M326.219769,62.3401914 L329.680381,62.3401914 L329.680381,58.8795792 L326.219769,58.8795792 L326.219769,62.3401914 Z M343.539388,55.385851 C343.473156,57.8254017 342.341707,59.0561972 340.145007,59.0782746 C337.937269,59.0561972 336.81134,57.8254017 336.767185,55.385851 L336.767185,45.1530358 C336.81134,42.7355626 337.937269,41.504767 340.145007,41.4606123 C342.341707,41.504767 343.473156,42.7355626 343.539388,45.1530358 L343.539388,55.385851 Z M333.306573,55.5845465 C333.32865,57.8033233 334.040635,59.5142947 335.442549,60.717512 C336.756153,61.9096906 338.323623,62.5168095 340.145007,62.5388869 C342.021585,62.5168095 343.616652,61.9096906 344.930256,60.717512 C346.265937,59.5142947 346.955845,57.8033233 347,55.5845465 L347,44.9377825 C346.955845,42.7079669 346.265937,40.9914763 344.930256,39.788259 C343.616652,38.5960804 342.021585,38 340.145007,38 C338.323623,38 336.756153,38.5960804 335.442549,39.788259 C334.040635,40.9914763 333.32865,42.7079669 333.306573,44.9377825 L333.306573,55.5845465 Z" id="WEB-2.0" fill="#FFFFFF"></path>
            </g>
        </g>
    </g>
</svg>