<?xml version="1.0" encoding="UTF-8"?>
<svg width="186px" height="158px" viewBox="0 0 186 158" version="1.1" xmlns="http://www.w3.org/2000/svg" xmlns:xlink="http://www.w3.org/1999/xlink">
    <!-- Generator: Sketch 41.2 (35397) - http://www.bohemiancoding.com/sketch -->
    <title>首页6-04</title>
    <desc>Created with Sketch.</desc>
    <defs>
        <path d="M70.9570312,76.828125 C70.6757798,87.1875518 65.8711404,92.414062 56.5429688,92.5078125 C47.1679219,92.414062 42.3867197,87.1875518 42.1992188,76.828125 L42.1992188,33.375 C42.3867197,23.1093237 47.1679219,17.8828134 56.5429688,17.6953125 C65.8711404,17.8828134 70.6757798,23.1093237 70.9570312,33.375 L70.9570312,76.828125 Z M27.5039062,77.671875 C27.5976567,87.0937971 30.621064,94.3593495 36.5742188,99.46875 C42.1523716,104.531275 48.8085551,107.109375 56.5429688,107.203125 C64.5117586,107.109375 71.2851284,104.531275 76.8632812,99.46875 C82.5351846,94.3593495 85.4648428,87.0937971 85.6523438,77.671875 L85.6523438,32.4609375 C85.4648428,22.9921402 82.5351846,15.7031505 76.8632812,10.59375 C71.2851284,5.53122469 64.5117586,3 56.5429688,3 C48.8085551,3 42.1523716,5.53122469 36.5742188,10.59375 C30.621064,15.7031505 27.5976567,22.9921402 27.5039062,32.4609375 L27.5039062,77.671875 Z M92.8945312,91.1015625 L135.644531,91.1015625 L135.644531,106.359375 L150.339844,106.359375 L150.339844,91.1015625 L158.496094,91.1015625 L158.496094,77.25 L150.339844,77.25 L150.339844,47.7890625 L135.644531,47.7890625 L135.644531,77.25 L108.855469,77.25 L143.519531,3.84375 L127.136719,3.84375 L92.8945312,77.25 L92.8945312,91.1015625 Z" id="path-1"></path>
        <filter x="-50%" y="-50%" width="200%" height="200%" filterUnits="objectBoundingBox" id="filter-2">
            <feOffset dx="0" dy="24" in="SourceAlpha" result="shadowOffsetOuter1"></feOffset>
            <feGaussianBlur stdDeviation="14" in="shadowOffsetOuter1" result="shadowBlurOuter1"></feGaussianBlur>
            <feColorMatrix values="0 0 0 0 0   0 0 0 0 0   0 0 0 0 0  0 0 0 0.2403476 0" type="matrix" in="shadowBlurOuter1"></feColorMatrix>
        </filter>
    </defs>
    <g id="首页" stroke="none" stroke-width="1" fill="none" fill-rule="evenodd">
        <g id="首页6-04">
            <use fill="black" fill-opacity="1" filter="url(#filter-2)" xlink:href="#path-1"></use>
            <use fill="#626262" fill-rule="evenodd" xlink:href="#path-1"></use>
        </g>
    </g>
</svg>