<?xml version="1.0" encoding="UTF-8"?>
<svg width="183px" height="158px" viewBox="0 0 183 158" version="1.1" xmlns="http://www.w3.org/2000/svg" xmlns:xlink="http://www.w3.org/1999/xlink">
    <!-- Generator: Sketch 41.2 (35397) - http://www.bohemiancoding.com/sketch -->
    <title>首页7-05</title>
    <desc>Created with Sketch.</desc>
    <defs>
        <path d="M71.453125,76.828125 C71.1718736,87.1875518 66.3672341,92.414062 57.0390625,92.5078125 C47.6640156,92.414062 42.8828134,87.1875518 42.6953125,76.828125 L42.6953125,33.375 C42.8828134,23.1093237 47.6640156,17.8828134 57.0390625,17.6953125 C66.3672341,17.8828134 71.1718736,23.1093237 71.453125,33.375 L71.453125,76.828125 Z M28,77.671875 C28.0937505,87.0937971 31.1171577,94.3593495 37.0703125,99.46875 C42.6484654,104.531275 49.3046488,107.109375 57.0390625,107.203125 C65.0078523,107.109375 71.7812221,104.531275 77.359375,99.46875 C83.0312784,94.3593495 85.9609366,87.0937971 86.1484375,77.671875 L86.1484375,32.4609375 C85.9609366,22.9921402 83.0312784,15.7031505 77.359375,10.59375 C71.7812221,5.53122469 65.0078523,3 57.0390625,3 C49.3046488,3 42.6484654,5.53122469 37.0703125,10.59375 C31.1171577,15.7031505 28.0937505,22.9921402 28,32.4609375 L28,77.671875 Z M98.8046875,59.25 L112.65625,59.25 C114.390634,56.1093593 116.359364,53.9062563 118.5625,52.640625 C120.765636,51.4218689 123.203112,50.8125 125.875,50.8125 C128.875015,50.8125 131.382802,51.2343708 133.398438,52.078125 C135.414073,53.1093802 136.937495,54.4921788 137.96875,56.2265625 C139.890635,59.8828308 140.804688,64.6405957 140.710938,70.5 C140.710938,72.890637 140.664063,75.3515498 140.570312,77.8828125 C140.382812,80.4609504 139.867192,82.8515515 139.023438,85.0546875 C138.226559,87.2578235 136.820323,89.0390557 134.804688,90.3984375 C132.695302,91.8046945 129.88283,92.5078125 126.367188,92.5078125 C118.164021,92.414062 113.265633,88.4297269 111.671875,80.5546875 L96.9765625,80.5546875 C98.3828195,89.9766096 102.015596,96.7968539 107.875,101.015625 C113.640654,105.140646 119.992153,107.203125 126.929688,107.203125 C132.085963,107.109375 136.539044,105.914074 140.289062,103.617188 C144.132832,101.414051 147.06249,98.9765759 149.078125,96.3046875 C151.375011,93.5859239 153.01562,90.4687676 154,86.953125 C154.937505,83.3906072 155.40625,78.2812833 155.40625,71.625 C155.40625,67.3124784 155.265626,63.6797023 154.984375,60.7265625 C154.703124,57.820298 154.234378,55.3593851 153.578125,53.34375 C152.312494,49.6406065 150.250014,46.3828266 147.390625,43.5703125 C145.46874,41.460927 142.960953,39.6796948 139.867188,38.2265625 C136.585921,36.9140559 132.976582,36.210938 129.039062,36.1171875 C122.898407,36.1171875 117.437524,37.9921688 112.65625,41.7421875 L112.65625,18.5390625 L153.4375,18.5390625 L153.4375,3.84375 L98.8046875,3.84375 L98.8046875,59.25 Z" id="path-1"></path>
        <filter x="-50%" y="-50%" width="200%" height="200%" filterUnits="objectBoundingBox" id="filter-2">
            <feOffset dx="0" dy="24" in="SourceAlpha" result="shadowOffsetOuter1"></feOffset>
            <feGaussianBlur stdDeviation="14" in="shadowOffsetOuter1" result="shadowBlurOuter1"></feGaussianBlur>
            <feColorMatrix values="0 0 0 0 0   0 0 0 0 0   0 0 0 0 0  0 0 0 0.2403476 0" type="matrix" in="shadowBlurOuter1"></feColorMatrix>
        </filter>
    </defs>
    <g id="首页" stroke="none" stroke-width="1" fill="none" fill-rule="evenodd">
        <g id="首页7-05">
            <use fill="black" fill-opacity="1" filter="url(#filter-2)" xlink:href="#path-1"></use>
            <use fill="#626262" fill-rule="evenodd" xlink:href="#path-1"></use>
        </g>
    </g>
</svg>