<?xml version="1.0" encoding="UTF-8"?>
<svg width="109px" height="151px" viewBox="0 0 109 151" version="1.1" xmlns="http://www.w3.org/2000/svg" xmlns:xlink="http://www.w3.org/1999/xlink">
    <!-- Generator: Sketch 41.2 (35397) - http://www.bohemiancoding.com/sketch -->
    <title>图标2</title>
    <desc>Created with Sketch.</desc>
    <defs>
        <path d="M105.263556,77.9996837 L87.7804685,77.9996837 L68.8886679,27.0677274 C69.0968756,26.077397 69.2102508,25.0522132 69.2102508,23.999217 C69.2102508,17.8651887 65.4932404,12.5917586 60.196748,10.2710128 L60.1967478,3.00037534 C60.1967478,1.34026049 58.854082,0.000515711009 57.1931886,0.000515711009 L51.1834215,0.000515711009 C49.5223516,0.000515711009 48.1800388,1.34026049 48.1800388,3.00037534 L48.1800388,10.2711889 C42.8833696,12.5921107 39.166536,17.8655408 39.166536,23.9993931 C39.166536,25.0506291 39.2799112,26.0745807 39.4865295,27.064911 L20.5964948,77.9996837 L3.1116412,77.9996837 C1.45374995,77.9996837 0.108258577,79.342421 0.108258577,80.9995433 C0.108258577,82.6566655 1.45374995,83.9994029 3.1116412,83.9994029 L18.3706681,83.9994029 L4.07285788,122.547301 C3.84628411,123.16234 3.8249159,123.836878 4.01775959,124.463887 L9.12140837,141.188959 L9.12140837,146.999449 C9.12140837,148.656747 10.4668997,149.999484 12.1263802,149.999484 C13.7842715,149.999484 15.1297628,148.656747 15.1297628,146.999449 L15.1297628,141.30056 L37.1381446,83.9995789 L48.1798623,83.9995789 L48.1798623,92.999158 C48.1798623,94.6578645 49.5223516,95.9990176 51.1832449,95.9990176 L57.1931886,95.9990178 C58.854082,95.9990178 60.1967478,94.6578647 60.1967478,92.9991581 L60.1967478,83.9995791 L71.2384655,83.9995791 L93.2466707,141.30056 L93.2466707,146.999449 C93.2466707,148.656747 94.5893365,149.999484 96.2502299,149.999484 C97.9109465,149.999484 99.2553784,148.656747 99.2553784,146.999449 L99.2553784,141.192127 L104.36044,124.464063 C104.551871,123.837054 104.530326,123.162517 104.30234,122.547477 L90.0043528,83.9995791 L105.26338,83.9995791 C106.92445,83.9995791 108.268528,82.6568417 108.268528,80.9997194 C108.268528,79.3425972 106.924626,77.9996837 105.263556,77.9996837 Z M54.1883933,14.999814 C59.1588881,14.999814 63.2017197,19.0373554 63.2017197,23.9993931 C63.2017197,28.9630149 59.1588881,32.998796 54.1883933,32.998796 C49.2178986,32.998796 45.1748904,28.9630149 45.1748904,23.9993931 C45.1748904,19.0371795 49.2178986,14.999814 54.1883933,14.999814 Z M60.1967478,77.9996837 L60.1967478,69.0002807 C60.1967478,67.3399899 58.854082,66.000245 57.1931886,66.000245 L51.1834215,66.000245 C49.5223516,66.000245 48.1800388,67.3399897 48.1800388,69.0002807 L48.1800388,77.9996837 L39.4422036,77.9996837 L54.1883933,39.6058101 L68.934583,77.9996837 L60.1967478,77.9996837 Z" id="path-1"></path>
        <filter x="-50%" y="-50%" width="200%" height="200%" filterUnits="objectBoundingBox" id="filter-2">
            <feGaussianBlur stdDeviation="6" in="SourceAlpha" result="shadowBlurInner1"></feGaussianBlur>
            <feOffset dx="0" dy="4" in="shadowBlurInner1" result="shadowOffsetInner1"></feOffset>
            <feComposite in="shadowOffsetInner1" in2="SourceAlpha" operator="arithmetic" k2="-1" k3="1" result="shadowInnerInner1"></feComposite>
            <feColorMatrix values="0 0 0 0 0   0 0 0 0 0   0 0 0 0 0  0 0 0 0.164741848 0" type="matrix" in="shadowInnerInner1"></feColorMatrix>
        </filter>
    </defs>
    <g id="首页" stroke="none" stroke-width="1" fill="none" fill-rule="evenodd" opacity="0.638700181">
        <g id="图标2" transform="translate(0.000000, 0.375933)">
            <g id="Shape">
                <use fill="#FFFFFF" fill-rule="evenodd" xlink:href="#path-1"></use>
                <use fill="black" fill-opacity="1" filter="url(#filter-2)" xlink:href="#path-1"></use>
            </g>
        </g>
    </g>
</svg>