<?xml version="1.0" encoding="UTF-8"?>
<svg width="130px" height="151px" viewBox="0 0 130 151" version="1.1" xmlns="http://www.w3.org/2000/svg" xmlns:xlink="http://www.w3.org/1999/xlink">
    <!-- Generator: Sketch 41.2 (35397) - http://www.bohemiancoding.com/sketch -->
    <title>图标3</title>
    <desc>Created with Sketch.</desc>
    <defs>
        <path d="M48.6941509,87.3340503 C48.7471795,94.2307913 43.9323126,99.8717665 37.9470191,99.9142196 C31.9642133,99.9692122 27.0939609,94.4199418 27.0621438,87.5232007 C27.0091151,80.6228339 31.8213634,75.0033118 37.7884569,74.9394056 C43.7734887,74.8931755 48.6623338,80.4486402 48.6941509,87.3340503 Z M43.4012408,62.4406677 C37.4238035,62.4894661 32.5320778,56.9430661 32.4952851,50.0307641 C32.4476248,43.1461094 37.2441609,37.520091 43.2319421,37.4746163 C49.1961551,37.410559 54.1011052,42.9507647 54.1221858,49.8540021 C54.1855582,56.7634336 49.3600855,62.3770636 43.4012408,62.4406677 Z M86.5938958,37.3736957 C86.6147145,44.2588036 81.8270819,49.9150377 75.8493826,49.9605124 C69.8665769,50.0183755 64.9831,44.4660836 64.9461764,37.572062 C64.8879104,30.6659541 69.69754,25.0464322 75.6910824,24.9914395 C81.6474393,24.9518569 86.5409981,30.4920626 86.5938958,37.3736957 Z M21.6500831,136.33294 C46.4744126,138.705026 37.5848534,108.281258 60.5539671,108.000403 L70.5009561,117.574862 C72.97916,152.152538 36.321594,159.872507 21.6500831,136.33294 Z M97.7719342,91.9019136 C105.493686,77.9212451 129.414303,31.0318665 129.414303,31.0318665 C131.316917,27.1443103 127.088638,23.0828626 124.134224,25.9518465 C124.134224,25.9518465 88.5652507,61.6328501 78.0744892,72.9419945 C69.781731,81.8849449 69.7476879,85.9710186 67.0622143,100.713124 L76.1500089,109.451967 C88.2004662,103.744064 91.6677518,102.963742 97.7719342,91.9019136 Z M29.4613938,121.917165 C18.1830593,110.549855 10.9527064,93.9380008 10.8285802,75.4115263 C10.5908025,41.0053246 34.6752192,12.7794489 64.5177576,12.4988957 C85.2884753,12.370781 99.5847271,24.3937721 99.6746793,34.0227709 C102.956954,30.7023639 106.027638,27.604496 108.675533,24.9337274 C103.210575,11.0536773 86.0441003,-0.325416585 64.4278054,0.00710757874 C28.5761433,0.345372638 -0.280848366,34.1326051 0.00485145669,75.5122958 C0.129108681,93.6941598 5.86339998,110.293626 15.2816741,123.185621 C20.4661702,126.259166 26.7712066,125.240594 29.4613938,121.917165 Z M98.7180693,110.013224 C104.447123,122.319488 91.4035252,131.052439 79.5332343,134.942714 C77.8843719,140.638531 75.1885544,145.688033 72.09679,149.371633 C100.536231,145.688033 121.13765,122.496401 106.006426,100.109715 C103.522069,104.384637 101.154767,107.586145 98.7180693,110.013224 Z" id="path-1"></path>
        <filter x="-50%" y="-50%" width="200%" height="200%" filterUnits="objectBoundingBox" id="filter-2">
            <feGaussianBlur stdDeviation="6" in="SourceAlpha" result="shadowBlurInner1"></feGaussianBlur>
            <feOffset dx="0" dy="4" in="shadowBlurInner1" result="shadowOffsetInner1"></feOffset>
            <feComposite in="shadowOffsetInner1" in2="SourceAlpha" operator="arithmetic" k2="-1" k3="1" result="shadowInnerInner1"></feComposite>
            <feColorMatrix values="0 0 0 0 0   0 0 0 0 0   0 0 0 0 0  0 0 0 0.164741848 0" type="matrix" in="shadowInnerInner1"></feColorMatrix>
        </filter>
    </defs>
    <g id="首页" stroke="none" stroke-width="1" fill="none" fill-rule="evenodd" opacity="0.641983696">
        <g id="图标3" transform="translate(0.000000, 0.375933)">
            <g id="Shape">
                <use fill="#FFFFFF" fill-rule="evenodd" xlink:href="#path-1"></use>
                <use fill="black" fill-opacity="1" filter="url(#filter-2)" xlink:href="#path-1"></use>
            </g>
        </g>
    </g>
</svg>