<?xml version="1.0" encoding="UTF-8"?>
<svg width="50px" height="50px" viewBox="0 0 50 50" version="1.1" xmlns="http://www.w3.org/2000/svg" xmlns:xlink="http://www.w3.org/1999/xlink">
    <!-- Generator: Sketch 41.2 (35397) - http://www.bohemiancoding.com/sketch -->
    <title>鼠标滚动1</title>
    <desc>Created with Sketch.</desc>
    <defs>
        <circle id="path-1" cx="24" cy="24" r="24"></circle>
        <filter x="-50%" y="-50%" width="200%" height="200%" filterUnits="objectBoundingBox" id="filter-2">
            <feGaussianBlur stdDeviation="4" in="SourceAlpha" result="shadowBlurInner1"></feGaussianBlur>
            <feOffset dx="0" dy="0" in="shadowBlurInner1" result="shadowOffsetInner1"></feOffset>
            <feComposite in="shadowOffsetInner1" in2="SourceAlpha" operator="arithmetic" k2="-1" k3="1" result="shadowInnerInner1"></feComposite>
            <feColorMatrix values="0 0 0 0 0.847058824   0 0 0 0 0.847058824   0 0 0 0 0.847058824  0 0 0 1 0" type="matrix" in="shadowInnerInner1"></feColorMatrix>
        </filter>
        <filter x="-50%" y="-50%" width="200%" height="200%" filterUnits="objectBoundingBox" id="filter-3">
            <feOffset dx="0" dy="2" in="SourceAlpha" result="shadowOffsetOuter1"></feOffset>
            <feGaussianBlur stdDeviation="2" in="shadowOffsetOuter1" result="shadowBlurOuter1"></feGaussianBlur>
            <feColorMatrix values="0 0 0 0 0.847058824   0 0 0 0 0.847058824   0 0 0 0 0.847058824  0 0 0 1 0" type="matrix" in="shadowBlurOuter1" result="shadowMatrixOuter1"></feColorMatrix>
            <feMerge>
                <feMergeNode in="shadowMatrixOuter1"></feMergeNode>
                <feMergeNode in="SourceGraphic"></feMergeNode>
            </feMerge>
        </filter>
        <path d="M7.55199238,0 C5.49466667,0 3.69785143,0.710854857 2.2136,2.13277257 C0.729074286,3.55472 -7.61904812e-06,5.25589257 -7.61904812e-06,7.26178514 L-7.61904812e-06,18.7381851 C-7.61904812e-06,20.7440777 0.729074286,22.4452503 2.2136,23.8671977 C3.6978819,25.2891451 5.49466667,25.9999703 7.55199238,25.9999703 C9.6093181,25.9999703 11.3541105,25.2891451 12.8125181,23.8671977 C14.2709257,22.4452503 14.9999771,20.7440777 14.9999771,18.7381851 L14.9999771,7.26181486 C14.9999771,5.25592229 14.2709257,3.55472 12.8125181,2.13280229 C11.3541105,0.710884571 9.60934857,4.12368552e-16 7.55199238,4.12368552e-16 L7.55199238,0 Z M13.3333257,18.7382149 C13.3333257,20.2870423 12.7605257,21.6328023 11.6405257,22.7245349 C10.5208,23.8165349 9.14053333,24.3750149 7.55199238,24.3750149 C5.93757714,24.3750149 4.55734095,23.8165349 3.3853181,22.7245349 C2.23944381,21.6073074 1.66664381,20.2870423 1.66664381,18.7382149 L1.66664381,7.26181486 C1.66664381,5.71298743 2.23944381,4.39272229 3.3853181,3.30072229 C4.55731048,2.18349486 5.93757714,1.62501486 7.55199238,1.62501486 C9.14053333,1.62501486 10.5208,2.18349486 11.6405257,3.27549486 C12.7605257,4.36722743 13.3333257,5.71298743 13.3333257,7.26181486 L13.3333257,18.7382149 L13.3333257,18.7382149 Z" id="path-4"></path>
        <filter x="-50%" y="-50%" width="200%" height="200%" filterUnits="objectBoundingBox" id="filter-5">
            <feGaussianBlur stdDeviation="1" in="SourceAlpha" result="shadowBlurInner1"></feGaussianBlur>
            <feOffset dx="0" dy="1" in="shadowBlurInner1" result="shadowOffsetInner1"></feOffset>
            <feComposite in="shadowOffsetInner1" in2="SourceAlpha" operator="arithmetic" k2="-1" k3="1" result="shadowInnerInner1"></feComposite>
            <feColorMatrix values="0 0 0 0 0.384061437   0 0 0 0 0.384061437   0 0 0 0 0.384061437  0 0 0 1 0" type="matrix" in="shadowInnerInner1"></feColorMatrix>
        </filter>
    </defs>
    <g id="首页" stroke="none" stroke-width="1" fill="none" fill-rule="evenodd">
        <g id="鼠标滚动1" transform="translate(1.000000, 1.000000)">
            <g id="Oval-2">
                <use fill="black" fill-opacity="1" filter="url(#filter-2)" xlink:href="#path-1"></use>
                <use stroke="#CDCDCD" stroke-width="1" xlink:href="#path-1"></use>
            </g>
            <g id="鼠标" filter="url(#filter-3)" transform="translate(17.000000, 11.000000)">
                <g id="Shape">
                    <use fill="#FFFFFF" fill-rule="evenodd" xlink:href="#path-4"></use>
                    <use fill="black" fill-opacity="1" filter="url(#filter-5)" xlink:href="#path-4"></use>
                </g>
            </g>
        </g>
    </g>
</svg>