<?xml version="1.0" encoding="UTF-8"?>
<svg width="342px" height="426px" viewBox="0 0 342 426" version="1.1" xmlns="http://www.w3.org/2000/svg" xmlns:xlink="http://www.w3.org/1999/xlink">
    <!-- Generator: Sketch 41.2 (35397) - http://www.bohemiancoding.com/sketch -->
    <title>首页4-4</title>
    <desc>Created with Sketch.</desc>
    <defs>
        <linearGradient x1="0%" y1="0%" x2="101.999998%" y2="100.999999%" id="linearGradient-1">
            <stop stop-color="#FBDA61" offset="0%"></stop>
            <stop stop-color="#E3F005" offset="61.9479432%"></stop>
            <stop stop-color="#B5FF00" offset="100%"></stop>
        </linearGradient>
        <rect id="path-2" x="3" y="0" width="304.694391" height="389.449219"></rect>
        <filter x="-50%" y="-50%" width="200%" height="200%" filterUnits="objectBoundingBox" id="filter-3">
            <feOffset dx="0" dy="4" in="SourceAlpha" result="shadowOffsetOuter1"></feOffset>
            <feGaussianBlur stdDeviation="9" in="shadowOffsetOuter1" result="shadowBlurOuter1"></feGaussianBlur>
            <feColorMatrix values="0 0 0 0 0.671319586   0 0 0 0 0.67280506   0 0 0 0 0  0 0 0 0.39526721 0" type="matrix" in="shadowBlurOuter1"></feColorMatrix>
        </filter>
        <path d="M23.1189917,37.5588469 L23.1189917,33.8843052 L60.9361502,33.8843052 L66.7541746,24.6979509 L87.4234718,35.1091524 L81.7585533,41.5396004 L81.7585533,45.9796717 C84.1061889,50.3687295 86.4282719,54.4515129 88.724872,58.2281441 C91.021472,62.0047753 93.3945898,65.5261759 95.8442966,68.7924515 C97.171221,66.9551715 98.4215734,65.1944712 99.5953912,63.5102978 C100.769209,61.8261244 101.917492,60.0654241 103.040274,58.2281441 C104.163056,56.390864 105.285822,54.4515419 106.408604,52.4101197 C107.531386,50.3686974 108.807256,48.0721318 110.236252,45.5203539 C113.094243,40.5188694 115.0846,35.5174598 116.207382,30.5159752 L140.704327,44.4486126 L132.436608,48.1231543 C127.537194,52.1039278 122.204059,56.0080893 116.437041,59.8357561 C110.670023,63.6634228 104.265157,67.2613756 97.2222497,70.6297224 C100.284383,74.6104958 103.525092,78.2850008 106.944475,81.6533475 C110.363857,85.0216943 114.089397,88.1603339 118.121206,91.0693607 C122.153015,93.9783874 126.542007,96.7087488 131.288314,99.2605266 C136.03462,101.812304 141.265686,104.313009 146.981669,106.762716 L146.828563,107.681351 C143.256074,108.804134 139.658121,110.947595 136.034597,114.111799 C132.411072,117.276004 129.221398,122.175344 126.465478,128.809966 C119.830855,123.298126 114.217028,117.990508 109.623828,112.886952 C105.030628,107.783396 101.049914,102.246122 97.6815674,96.2749615 C94.3132207,90.3038013 91.4042376,83.5927262 88.9545308,76.1415349 C86.5048241,68.6903436 84.1061889,59.81029 81.7585533,49.5011075 L81.7585533,66.9551806 C81.7585533,70.4255985 81.8351055,76.8304648 81.9882122,86.1699717 C82.1413188,95.5094786 82.3709754,107.221963 82.6771887,121.307777 C82.7792598,124.063697 82.4220163,126.48785 81.6054474,128.580307 C80.7888785,130.672765 79.3343869,132.458983 77.2419291,133.939014 C75.1494713,135.419045 72.3170403,136.64388 68.7445514,137.613556 C65.1720624,138.583231 60.7320355,139.323236 55.4243376,139.833591 C55.1181243,136.771458 54.6332938,134.168684 53.9698315,132.02519 C53.3063693,129.881697 52.1325691,128.044444 50.4483957,126.513378 C48.7642223,124.982311 46.3655871,123.629889 43.2524182,122.456071 C40.1392492,121.282253 35.9799137,120.082936 30.7742869,118.858082 L31.0804987,117.939447 L56.0367612,119.164294 C61.1403169,119.470508 63.6920565,116.918768 63.6920565,111.508999 L63.6920565,37.5588469 L23.1189917,37.5588469 Z M3.82764763,66.8020747 L3.82764763,63.127533 L36.4392054,63.127533 L43.0227593,53.3287551 L62.926527,65.8834393 L56.9553967,70.3235106 C52.0559832,84.9196798 45.0897342,97.1680297 36.0564406,107.068928 C27.0231471,116.969826 15.1575581,125.186427 0.459317715,131.718978 L0,130.953449 C10.1050403,120.746338 18.1940547,110.462827 24.2672859,100.102609 C30.3405172,89.742391 35.0102006,78.6423239 38.2764763,66.8020747 L3.82764763,66.8020747 Z M44.2476066,2.34448872 C51.0863712,2.03827538 57.006407,1.93620579 62.0078915,2.03827691 C67.0093761,2.14034802 71.2197464,2.42103937 74.6391287,2.88035938 C78.058511,3.3396794 80.8143898,4.00313168 82.9068476,4.87073615 C84.9993054,5.73834062 86.6069013,6.73351905 87.7296836,7.8563013 C89.873177,9.99979469 90.9449076,12.5515343 90.9449076,15.5115966 C90.9449076,17.2468055 90.6386988,18.7778492 90.0262722,20.1047737 C89.4138455,21.4316982 88.673841,22.5289462 87.8062365,23.3965507 C86.9386321,24.2641551 85.9944884,24.90209 84.9737773,25.3103745 C83.9530662,25.7186589 83.0344399,25.9227981 82.217871,25.9227981 C80.6868043,25.9227981 79.3343823,25.6676241 78.1605645,25.1572686 C76.9867467,24.646913 75.3791508,23.4731128 73.3377285,21.6358328 C70.9900929,19.5944105 68.7955969,17.757158 66.7541746,16.1240202 C64.7127523,14.4908824 62.5692911,12.9343212 60.3237266,11.4542901 C58.0781621,9.97425892 55.6540095,8.57080216 53.0511961,7.24387768 C50.4483827,5.9169532 47.4118126,4.48797904 43.9413947,2.95691234 L44.2476066,2.34448872 Z M286.294857,223.500458 C286.294857,232.074431 286.345892,239.653098 286.447963,246.236685 C286.550034,252.820271 286.703138,259.020999 286.907281,264.839052 C287.009352,267.186688 285.835551,268.564627 283.385845,268.972911 C281.344422,269.381196 278.792683,269.738439 275.730549,270.044653 C272.668416,270.350866 269.810468,270.60604 267.156619,270.810182 L267.156619,258.56171 L239.44445,258.56171 L239.44445,267.288746 C239.44445,268.921884 239.112724,270.070167 238.449262,270.733629 C237.785799,271.397092 236.586482,271.932957 234.851273,272.341241 C232.197424,272.851597 229.569132,273.259875 226.966319,273.566089 C224.363505,273.872302 222.041422,274.076441 220,274.178512 C220.204142,265.70661 220.357247,257.566561 220.459318,249.75812 C220.561389,241.94968 220.612424,234.524118 220.612424,227.481211 L220.612424,184.15224 C220.612424,181.192178 220.586906,178.079055 220.535871,174.81278 C220.484835,171.546504 220.4338,168.35683 220.382765,165.243661 C220.331729,162.130492 220.306212,159.40013 220.306212,157.052495 L242.659674,162.411202 L264.706924,162.411202 L270.065631,152 L292.265987,162.258096 L286.294857,169.760285 L286.294857,223.500458 Z M150.062118,161.587933 C161.187869,158.219586 171.012067,154.85129 179.535005,151.482943 C188.057943,148.114596 195.585575,144.286987 202.118126,140 L219.572199,156.229226 L210.079633,156.229226 C208.242353,156.739582 205.792683,157.249929 202.730549,157.760285 C199.668416,158.270641 196.963572,158.678919 194.615936,158.985132 L194.615936,187.615936 L198.443584,187.615936 L205.792668,177.204735 L219.878411,187.156619 C220.592909,187.666974 220.950152,188.20284 220.950152,188.764231 C220.950152,189.325622 220.490839,189.887005 219.572199,190.448396 C218.653559,191.009787 217.530794,191.290478 216.203869,191.290478 L194.615936,191.290478 L194.615936,203.232739 C203.496123,206.601086 209.620298,209.841795 212.988645,212.954964 C216.356992,216.068133 218.04114,219.461946 218.04114,223.136506 C218.04114,226.096569 216.969409,228.673826 214.825916,230.868355 C212.682423,233.062884 210.232753,234.160132 207.476832,234.160132 C204.006415,234.160132 201.965023,232.11874 201.352596,228.035895 C200.74017,223.034411 199.898096,218.798523 198.826349,215.328105 C197.754602,211.857687 196.351145,208.540426 194.615936,205.376221 L194.615936,272.589714 C194.615936,274.835278 194.258693,276.315287 193.544195,277.029785 C192.829697,277.744283 191.604862,278.203596 189.869653,278.407738 C187.828231,278.713952 185.480631,278.969125 182.826782,279.173268 C180.172933,279.37741 177.723263,279.479479 175.477698,279.479479 C175.681841,273.661426 175.834945,268.149669 175.937016,262.944042 C176.039087,257.738415 176.141157,252.762523 176.243228,248.016216 C176.345299,243.269909 176.396334,238.702295 176.396334,234.313238 L176.396334,221.14613 C172.619703,226.65797 168.409332,231.914553 163.765097,236.916038 C159.120861,241.917522 153.787725,247.021002 147.76553,252.226628 L147,251.767311 C150.368347,245.745115 153.353882,240.233358 155.956695,235.231873 C158.559509,230.230388 160.881592,225.356566 162.923014,220.610259 C164.964436,215.863952 166.801689,211.143234 168.434827,206.447963 C170.067965,201.752692 171.650043,196.700247 173.18111,191.290478 L149.6028,191.290478 L149.6028,187.615936 L176.396334,187.615936 L176.396334,160.822403 C172.41556,161.332759 168.10312,161.71552 163.458885,161.970697 C158.814649,162.225875 154.40014,162.404497 150.215224,162.506568 L150.062118,161.587933 Z M240,166 L240,254.801425 L267.712169,254.801425 L267.712169,166 L240,166 Z" id="path-4"></path>
        <filter x="-50%" y="-50%" width="200%" height="200%" filterUnits="objectBoundingBox" id="filter-5">
            <feMorphology radius="2" operator="dilate" in="SourceAlpha" result="shadowSpreadOuter1"></feMorphology>
            <feOffset dx="0" dy="4" in="shadowSpreadOuter1" result="shadowOffsetOuter1"></feOffset>
            <feGaussianBlur stdDeviation="9" in="shadowOffsetOuter1" result="shadowBlurOuter1"></feGaussianBlur>
            <feComposite in="shadowBlurOuter1" in2="SourceAlpha" operator="out" result="shadowBlurOuter1"></feComposite>
            <feColorMatrix values="0 0 0 0 0.671319586   0 0 0 0 0.67280506   0 0 0 0 0  0 0 0 0.39526721 0" type="matrix" in="shadowBlurOuter1"></feColorMatrix>
        </filter>
    </defs>
    <g id="首页" stroke="none" stroke-width="1" fill="none" fill-rule="evenodd">
        <g id="首页4-4" transform="translate(16.000000, 14.000000)">
            <g id="Rectangle-2-Copy-4">
                <use fill="black" fill-opacity="1" filter="url(#filter-3)" xlink:href="#path-2"></use>
                <use fill="url(#linearGradient-1)" fill-rule="evenodd" xlink:href="#path-2"></use>
            </g>
            <g id="永和" opacity="0.804404438">
                <use fill="black" fill-opacity="1" filter="url(#filter-5)" xlink:href="#path-4"></use>
                <use stroke="#FFFFFF" stroke-width="4" fill="url(#linearGradient-1)" fill-rule="evenodd" xlink:href="#path-4"></use>
            </g>
            <g id="Group-8" transform="translate(30.000000, 209.000000)" fill="#FFFFFF">
                <text id="暮春之初，-会于会稽山阴之兰亭，-修禊事" font-family="PingFangSC-Medium, PingFang SC" font-size="18" font-weight="400" letter-spacing="5.14285707">
                    <tspan x="0" y="104">暮春之初，</tspan>
                    <tspan x="0" y="129">会于会稽山阴之兰亭，</tspan>
                    <tspan x="0" y="154">修禊事也。</tspan>
                </text>
                <text id="永和九年，-岁在癸丑。" font-family="PingFangSC-Medium, PingFang SC" font-size="18" font-weight="400" line-spacing="24">
                    <tspan x="0" y="19">永和九年，</tspan>
                    <tspan x="0" y="43">岁在癸丑。</tspan>
                </text>
                <rect id="Rectangle-2" x="0" y="63" width="19" height="5"></rect>
            </g>
        </g>
    </g>
</svg>